# xmcd
#
# Track frame offsets:
#	150
#	14412
#	29210
#	42947
#	59040
#	75795
#	98527
#	115407
#	131950
#
# Disc length: 1976 seconds
#
# Revision: 1
# Processed by: cddbd v1.5.1PL0 Copyright (c) Steve Scherf et al.
# Submitted via: audiograbber 1.83.01
#
DISCID=7707b609
DTITLE=Peter Meland - Believe
DYEAR=2003
DGENRE=Christian Pop
TTITLE0=Believe
TTITLE1=Allmektig Gud
TTITLE2=Jesus er den mannen
TTITLE3=I surrender
TTITLE4=Under og mirakler
TTITLE5=Another day
TTITLE6=More love, more power
TTITLE7=Pris og ære
TTITLE8=Close to you
EXTD=
EXTT0=
EXTT1=
EXTT2=
EXTT3=
EXTT4=
EXTT5=
EXTT6=
EXTT7=
EXTT8=
PLAYORDER=
